<?xml version="1.0" encoding="UTF-8"?>
<svg xmlns="http://www.w3.org/2000/svg" width="250" height="63" viewBox="0 0 250 63"><g fill="none"><path d="M112.602 48.924c0 7.326-5.532 13.474-17.161 13.474-11.27 0-19.826-5.84-20.287-16.291h7.684c.41 5.84 4.406 9.733 12.654 9.733 6.813 0 9.477-3.022 9.477-6.557 0-5.482-3.944-6.506-13.012-8.76-7.223-1.793-15.01-4.56-15.01-13.32 0-8.197 6.301-12.756 16.342-12.756 10.092 0 17.47 5.276 18.084 14.754h-7.684c-.718-5.328-4.048-8.197-10.451-8.197-5.482 0-8.76 2.05-8.76 5.482 0 5.02 4.303 5.942 10.758 7.53 9.887 2.46 17.366 4.611 17.366 14.908zm33.709-20.44v32.94h-6.762v-4.252h-.154c-1.741 2.562-5.174 5.174-10.809 5.174-6.096 0-10.963-3.535-10.963-11.065V28.484h6.813v20.799c0 4.457 1.845 7.274 6.507 7.274 5.225 0 8.555-3.176 8.555-8.043v-20.03h6.813zm13.371-13.115v46.055h-6.813V15.37zm23.054 18.801v-.154h-16.547v-5.532h25.666v4.508L173.77 55.738v.153h18.802v5.533h-27.51v-5.02zm36.424 17.213h6.762c-1.69 6.25-6.557 11.015-15.01 11.015-10.246 0-16.496-7.07-16.496-17.418 0-10.707 6.25-17.419 16.189-17.419 10.655 0 15.83 7.429 15.83 19.16h-25.257c0 5.533 3.535 10.093 9.529 10.093 5.635.05 7.89-3.433 8.453-5.43zm-17.982-9.682h18.494c0-5.072-3.586-8.76-9.067-8.76-5.482 0-9.427 3.688-9.427 8.76zm48.515-13.781v6.404h-.154c-6.506-1.076-11.732 3.278-11.732 10.297v16.803h-6.762v-32.94h6.762v6.198h.154c1.742-4.098 4.457-6.967 8.76-6.967 1.179 0 1.998.103 2.972.205z" fill="#000"/><path fill="#E0004A" d="M32.275 0h29.201v29.201H32.275z"/><path fill="#FFCD00" d="M32.275 32.275h29.201v29.201H32.275z"/><path fill="#004680" d="M0 0h29.201v29.201H0z"/><path fill="#5F249F" d="M0 32.275h29.201v29.201H0z"/></g></svg>